<?xml version="1.0" encoding="utf-8"?>
<!-- Generator: Adobe Illustrator 23.0.2, SVG Export Plug-In . SVG Version: 6.00 Build 0)  -->
<svg version="1.1" id="Layer_1" xmlns="http://www.w3.org/2000/svg" xmlns:xlink="http://www.w3.org/1999/xlink" x="0px" y="0px"
	 viewBox="0 0 167.2582 228.8095" enable-background="new 0 0 167.2582 228.8095" xml:space="preserve">
<g>
	<path d="M113.3078,13.2607c-5.1006,11.3281-0.0518,24.6474,11.2754,29.748c11.3281,5.1025,24.6455,0.0537,29.748-11.2734
		c5.1016-11.3282,0.0527-24.6446-11.2744-29.7452C131.7296-3.1124,118.4093,1.9355,113.3078,13.2607z"/>
	<path d="M103.8761,78.1025c-4.7197-5.9502-7.0244-11.586-7.9795-14.4141l-0.0341-0.1065
		c-1.6748-5.3281,1.2597-10.9531,6.5195-12.6054c0.9746-0.3076,1.9853-0.4619,2.999-0.4619c4.3867,0,8.2197,2.8134,9.5371,7.0029
		l0.0391,0.1055c0.0928,0.2558,0.2295,0.6132,0.4248,1.0742c0.374,0.8779,1.0244,2.2597,1.9687,3.8281
		c0.4659,0.7764,1.1338,1.7891,1.9815,2.873c3.041-8.7089,1.1875-18.9384-5.916-22.2705c-0.0284-0.0136-0.0586-0.0253-0.0879-0.038
		c-0.4717-0.335-0.9834-0.627-1.5391-0.8594h-0.0019c-0.5752-0.2129-11.1807-4.6895-25.5528-4.7256
		c-7.3564,0-15.7724,1.2197-24.1045,5.0762c-8.3271,3.8379-16.4472,10.3925-22.9013,20.3076
		c-2.418,3.6982-1.3789,8.6562,2.3193,11.0742c1.3496,0.8818,2.8682,1.3037,4.3682,1.3037c2.6113,0,5.1699-1.2764,6.706-3.625
		c4.9502-7.54,10.502-11.8633,16.2354-14.542c5.4902-2.5478,11.2578-3.5029,16.664-3.5791
		c-0.2978,0.461-0.5918,0.9317-0.8769,1.4229c-10.5723,18.4804-14.543,31.081-16.2969,53.3779
		c-0.0127,5.5176,1.1709,9.5996,3.0869,12.6563c0.5655,2.2626,1.1055,5.2207,1.0772,8.1162
		c-0.0176,4.0839-0.8965,7.5146-3.0293,10.1992c-1.1026,1.3818-2.6114,2.7558-5.1397,4.1094
		c-2.5205,1.3418-6.0957,2.6201-11.0976,3.4462c-0.543,0.0899-1.0674,0.2247-1.5811,0.379l11.1074,23.1806
		c4.9366-1.1953,9.3682-2.8369,13.3077-4.9297c8.0205-4.2109,13.8515-10.4902,17.1337-17.1582
		c2.0391-4.0898,3.1866-8.207,3.7754-12.1201c0.6494,0.4922,1.2979,1.001,1.9375,1.5371c3.2793,2.7207,6.295,5.9561,8.3164,9.3408
		c2.0313,3.419,3.1455,6.8135,3.1631,10.8213c-0.0078,2.4258-0.4365,5.1983-1.6279,8.4698l24.5283,5.3828
		c1.4004-4.7159,2.1065-9.3662,2.1006-13.8526c0.0166-9.3818-2.9883-17.7109-7.1182-24.3261
		c-6.2402-9.9727-14.7099-16.586-21.5332-21.0264c-1.041-0.6709-2.041-1.2832-3.0009-1.8516
		c1.4257-8.6152,4.3125-17.3496,7.4052-25.3818C108.5216,83.2743,106.0822,80.8651,103.8761,78.1025z"/>
	<path d="M112.4201,187.3817c1.8164,0.9249,3.7529,1.3624,5.6592,1.3633c4.5546,0,8.9443-2.498,11.1513-6.834
		c0.8262-1.6181,1.544-3.2353,2.2022-4.8496l-24.9385-5.4707C104.1027,177.5331,106.6017,184.4208,112.4201,187.3817z"/>
	<path d="M155.2716,68.4735c-8.9453,5.1348-15.749,6.7403-20.7949,6.7403c-4.1074-0.0147-7.1924-1.0098-9.8721-2.5078
		c-3.9834-2.2334-7.0195-5.9073-8.9648-9.1485c-0.9717-1.6064-1.668-3.0713-2.0986-4.081
		c-0.2149-0.5069-0.3643-0.8985-0.4522-1.1387c-0.0381-0.1025-0.0635-0.1787-0.0791-0.2207h0.001
		c-1.3262-4.2148-5.8164-6.5586-10.0303-5.2324c-4.2168,1.3242-6.5586,5.8144-5.2344,10.0303
		c0.1973,0.5556,2.2051,7.0214,7.6905,13.9394c2.7529,3.4473,6.4297,7.0215,11.2832,9.7725
		c4.8213,2.747,10.8398,4.5869,17.6845,4.5869c0.0245,0,0.0479,0,0.0723,0c8.502-0.002,18.0645-2.7149,28.7676-8.8692
		c3.8301-2.2011,5.1494-7.0918,2.9492-10.9218C163.9923,67.5927,159.1017,66.2733,155.2716,68.4735z"/>
	<path d="M98.3556,174.0487c-1.9648,0.1934-5.2012,0.6153-8.5215,1.5059c-2.6425,0.7158-5.3466,1.7041-7.6035,3.293
		c-2.2265,1.5381-4.1621,4.0244-4.1474,7.2285c0,1.333,0.3271,2.706,0.9414,4.0801c1.5273,3.3818,4.7529,13.0009,10.9951,21.7295
		c6.2012,8.7275,15.8535,16.9228,29.9638,16.9238c0.0137,0,0.0254,0,0.0391,0c3.4922,0,7.2285-0.5,11.2178-1.5752
		c1.333-0.3594,2.123-1.7315,1.7637-3.0615c-0.3594-1.333-1.7305-2.1231-3.0616-1.7637c-3.6113,0.9697-6.9043,1.3975-9.9199,1.4004
		c-12.0576-0.0156-20.1387-6.7901-25.9355-14.834c-5.7588-8.0527-8.7969-17.0215-10.4971-20.8613
		c-0.3838-0.8545-0.5049-1.5147-0.5068-2.0381c0.0156-1.1533,0.5566-2.0557,2.04-3.1504c2.1855-1.584,6.1318-2.7266,9.4385-3.3057
		c1.6543-0.2988,3.1601-0.4824,4.2383-0.5908c1.082-0.1064,1.7002-0.1348,1.7021-0.1367c1.1143-0.0557,2.0625-0.8457,2.3135-1.9346
		l1.3584-5.876l-4.8848-1.0712L98.3556,174.0487z"/>
	<path d="M107.5021,156.6786c0.3115-1.3457-0.5283-2.6865-1.8721-2.998c-1.3457-0.3115-2.6875,0.5273-2.999,1.873v-0.0019
		l-2.083,9.0117l4.8838,1.0723L107.5021,156.6786z"/>
	<path d="M42.9455,161.2157c1.0097,6.1231,6.3105,10.4688,12.3213,10.4688c0.6103,0,1.2285-0.0518,1.8505-0.1445L46.797,150.0048
		C43.8185,152.7626,42.2345,156.912,42.9455,161.2157z"/>
	<path d="M60.5011,139.9345c1.2754-0.5264,1.8828-1.9883,1.3565-3.2627c-0.5283-1.2774-1.9883-1.8828-3.2647-1.3565l-10.5469,4.3594
		l2.1631,4.5147L60.5011,139.9345z"/>
	<path d="M39.8175,143.0751c-0.9756-1.2422-2.4834-3.0557-4.3095-4.8965c-3.2881-3.2002-7.3536-6.7842-12.3604-6.9238
		c-2.6982-0.0547-5.4756,1.4551-7.2266,4.2197c-1.5117,2.2949-5.5205,7.3692-9.0869,13.8858
		c-3.5761,6.538-6.8261,14.6552-6.8339,23.4638c-0.0323,8.7969,3.3984,18.2178,12.6103,26.6065
		c0.4805,0.4394,1.085,0.6562,1.6885,0.6562c0.6767,0,1.3515-0.2724,1.8437-0.8115c0.9317-1.0176,0.8633-2.5977-0.1552-3.5293
		c-8.2852-7.6279-10.9571-15.3799-10.9864-22.9219c-0.0117-7.5429,2.8565-14.9394,6.2168-21.0634
		c3.3662-6.1446,7.1123-10.8819,8.874-13.5284c1.1836-1.6816,1.9639-1.9209,3.0557-1.9775c2.1045-0.1377,5.958,2.4629,8.8106,5.4473
		c1.4521,1.4599,2.7128,2.9443,3.6035,4.0527c0.4443,0.5537,0.7959,1.0156,1.0332,1.335c0.2373,0.3164,0.3476,0.4765,0.3496,0.4765
		c0.6728,0.9551,1.915,1.3154,2.9971,0.8682l5.0937-2.1065l-2.1641-4.5156L39.8175,143.0751z"/>
</g>
</svg>
